<svg width="16" height="17" viewBox="0 0 16 17" fill="none" xmlns="http://www.w3.org/2000/svg">
<path d="M1.38049 1.37631C1.8873 0.874203 2.70693 0.876263 3.21118 1.38091L14.6241 12.8028C15.1284 13.3075 15.1263 14.1236 14.6195 14.6257C14.1127 15.1278 13.2931 15.1258 12.7888 14.6211L1.37587 3.19922C0.871616 2.69457 0.873687 1.87843 1.38049 1.37631Z" fill="#CFCFCF"/>
<path d="M1.38049 14.6256C1.8873 15.1277 2.70693 15.1257 3.21118 14.621L14.6241 3.19912C15.1284 2.69447 15.1263 1.87833 14.6195 1.37622C14.1127 0.874106 13.2931 0.876165 12.7888 1.38082L1.37587 12.8027C0.871616 13.3074 0.873686 14.1235 1.38049 14.6256Z" fill="#CFCFCF"/>
<path d="M1.38049 1.37631C1.8873 0.874203 2.70693 0.876263 3.21118 1.38091L14.6241 12.8028C15.1284 13.3075 15.1263 14.1236 14.6195 14.6257C14.1127 15.1278 13.2931 15.1258 12.7888 14.6211L1.37587 3.19922C0.871616 2.69457 0.873687 1.87843 1.38049 1.37631Z" fill="#CFCFCF"/>
<path d="M1.38049 14.6256C1.8873 15.1277 2.70693 15.1257 3.21118 14.621L14.6241 3.19912C15.1284 2.69447 15.1263 1.87833 14.6195 1.37622C14.1127 0.874106 13.2931 0.876165 12.7888 1.38082L1.37587 12.8027C0.871616 13.3074 0.873686 14.1235 1.38049 14.6256Z" fill="#CFCFCF"/>
</svg>
